inDegrees=no
num_controls=7
num_derivatives=13
num_iterations=84
num_multipliers=7
num_parameters=0
num_slacks=7
num_states=26
objective=0.333947
objective_accelerations=0.037280
objective_balance=0.001240
objective_effort=0.027840
objective_height=0.265804
objective_ligament=0.001782
solver_duration=889.772759
status=Solve_Succeeded
success=true
DataType=double
version=3
OpenSimVersion=4.5
endheader
time	/jointset/ground_pelvis/pelvis_tilt/value	/jointset/ground_pelvis/pelvis_tx/value	/jointset/ground_pelvis/pelvis_ty/value	/jointset/hip_r/hip_flexion_r/value	/jointset/hip_r/hip_adduction_r/value	/jointset/hip_r/hip_rotation_r/value	/jointset/back/lumbar_extension/value	/jointset/patellofemoral_r/patellar_flexion_r/value	/jointset/knee_r/knee_flexion_r/value	/jointset/knee_r/knee_adduction_r/value	/jointset/knee_r/knee_rotation_r/value	/jointset/ankle_r/ankle_angle_r/value	/jointset/subtalar_r/subtalar_angle_r/value	/jointset/ground_pelvis/pelvis_tilt/speed	/jointset/ground_pelvis/pelvis_tx/speed	/jointset/ground_pelvis/pelvis_ty/speed	/jointset/hip_r/hip_flexion_r/speed	/jointset/hip_r/hip_adduction_r/speed	/jointset/hip_r/hip_rotation_r/speed	/jointset/back/lumbar_extension/speed	/jointset/patellofemoral_r/patellar_flexion_r/speed	/jointset/knee_r/knee_flexion_r/speed	/jointset/knee_r/knee_adduction_r/speed	/jointset/knee_r/knee_rotation_r/speed	/jointset/ankle_r/ankle_angle_r/speed	/jointset/subtalar_r/subtalar_angle_r/speed	/forceset/tau_hip_flexion_r	/forceset/tau_hip_adduction_r	/forceset/tau_hip_rotation_r	/forceset/tau_knee_flexion_r	/forceset/tau_ankle_angle_r	/forceset/tau_subtalar_angle_r	/forceset/tau_lumbar_extension	lambda_cid13_p0	lambda_cid14_p0	lambda_cid14_p1	lambda_cid14_p2	lambda_cid14_p3	lambda_cid14_p4	lambda_cid14_p5	/jointset/ground_pelvis/pelvis_tilt/accel	/jointset/ground_pelvis/pelvis_tx/accel	/jointset/ground_pelvis/pelvis_ty/accel	/jointset/hip_r/hip_flexion_r/accel	/jointset/hip_r/hip_adduction_r/accel	/jointset/hip_r/hip_rotation_r/accel	/jointset/back/lumbar_extension/accel	/jointset/patellofemoral_r/patellar_flexion_r/accel	/jointset/knee_r/knee_flexion_r/accel	/jointset/knee_r/knee_adduction_r/accel	/jointset/knee_r/knee_rotation_r/accel	/jointset/ankle_r/ankle_angle_r/accel	/jointset/subtalar_r/subtalar_angle_r/accel	gamma_cid13_p0	gamma_cid14_p0	gamma_cid14_p1	gamma_cid14_p2	gamma_cid14_p3	gamma_cid14_p4	gamma_cid14_p5
0.5	-0.1790947330094595	0.02962448269078977	0.8022295630999706	0.932278483937528	-0.2404558891274452	-0.07925528542879086	-0.6466438441810193	0.9646760469097253	0.964676046909723	0.01610503157920622	0.1745067362214729	0.2934493864952134	0.1103437399190678	-0.446310903532324	-0.2068835525855747	-0.5131774604654968	1.973654727052521	-0.01368397726063733	0.3480881423747277	-0.7356027804724212	1.958433015230447	1.958433015230401	-0.2913096328954879	-0.000121232749916548	0.5275572411980998	0.1653900330225782	-0.217674633790753	0.01964147204533135	0.0270823626523861	-0.2688283291229919	-0.01860707152724645	-0.012081019730963	0.250722267617728	-7.608710431564194	-48.9039730703844	-12.77187764021047	1.272884988766608	-3.112047926293531	-639.6783924959467	50.18644833483837	0.3990870163534137	0.5980180294098291	-0.430191077371191	-1.34221068001748	-0.06111659353581485	-0.255296689942011	1.7826100834179	-1.364701166318885	-1.364701166318886	0.6422581228074099	-0.06017502357788525	-0.553238675147499	-0.1402893982084082	-2.210225993989098e-08	1.499846282571403e-07	2.536237710202881e-06	1.332167412947341e-06	-3.672148838867199e-07	-4.550068084408659e-08	1.641185755580813e-06
0.51	-0.1835369037250109	0.02758572733801143	0.7970774740751604	0.9519448236024716	-0.2405959675372269	-0.07579072720623817	-0.6539102025772896	0.9841890535682508	0.9841890535682448	0.01322219645801757	0.17450521499418	0.2986963160573885	0.1119899995447024	-0.4420492766488909	-0.200850755172916	-0.5171251974102256	1.959346238862567	-0.01432461557956122	0.3448207255433581	-0.7175838356531012	1.943903356221006	1.943903356220962	-0.2852352457902678	-0.0001885097803888779	0.521750621947795	0.1638372444658827	-0.2247871150185515	0.02103637726219305	0.02716523802095976	-0.273160653479557	-0.02019634614696935	-0.01169202326418111	0.257116483832113	-6.683261369859738	-49.73374837410773	-12.89551827946126	1.460841258868278	-2.997539527424823	-644.8348752054658	50.23565942482011	0.4508113955658117	0.608352588950944	-0.3598028576261266	-1.515192652134265	-0.06414025524902627	-0.3629257852515589	1.824296150390777	-1.536837803323483	-1.536837803323209	0.5936916364458656	0.01949544450682478	-0.6061606583828328	-0.1659244067047887	-2.25322711157141e-08	1.423481360583321e-07	2.450633848545758e-06	1.240913983848762e-06	-3.551171630889187e-07	-4.977868280208158e-08	1.635324602358001e-06
0.52	-0.187934235997481	0.02560778835771086	0.7918893601099822	0.9714600734327805	-0.2407421728910318	-0.07235893547310436	-0.660993819631527	1.003548815729665	1.003548815729664	0.01040083773428788	0.1745029208940418	0.3038828220053786	0.1136201011203093	-0.4373432149163583	-0.1947202780900184	-0.5203824485390375	1.943436760126609	-0.0149093660656197	0.3415348444913059	-0.6990545120657089	1.927784115808895	1.927784115808853	-0.2790143534023856	-0.0002758073193121449	0.5154725183610566	0.1621584230170005	-0.231899596246387	0.02243128247905162	0.0272481133895644	-0.2774929778361226	-0.02178562076668847	-0.01130302679740291	0.2635107000464644	-5.820484936919068	-50.56154623554529	-13.01446910874519	1.643090015443768	-2.903368326003835	-649.9675654724565	50.28972277302908	0.4879739861732121	0.6175539634577093	-0.2920939141878667	-1.662408789218486	-0.04993902696275582	-0.2589895340785105	1.884685837032339	-1.682617446852835	-1.682617446852834	0.6715591793398612	-0.06417912526804426	-0.6475355424341115	-0.1654959766457722	-2.256793142866117e-08	1.345820273974762e-07	2.342758798997825e-06	1.14823649448015e-06	-3.409277147147915e-07	-5.01642438554829e-08	1.606065763450744e-06
0.53	-0.1922823921379049	0.02369157054856346	0.7866721504691631	0.9908084321683354	-0.2408939227693713	-0.06896020991891301	-0.6678896838983648	1.022739566525136	1.022739566525135	0.007642175668681375	0.1744996337028898	0.3090042515128847	0.115232823311475	-0.4322201986189096	-0.1885132457641042	-0.5229408363333293	1.925980001675359	-0.0154260048676205	0.3381582394223662	-0.680046924151677	1.910107565982454	1.91010756598243	-0.2727497045350815	-0.0003697659089671189	0.5087417950686389	0.1603750176210291	-0.2388704865623806	0.02379256588427306	0.02721698005336464	-0.2819818729378824	-0.02336685536189551	-0.01095856850226708	0.2697503322107744	-5.020882506934144	-51.39879121892964	-13.15481147025226	1.829198427676078	-2.745681838100562	-655.1907375566747	50.32023807505227	0.5346522043835789	0.6237168687336903	-0.2199247916648131	-1.825539185049873	-0.05005162593510296	-0.3848550038060722	1.919507841038802	-1.848940828589752	-1.848940828587104	0.5994724204857097	0.02006336989478617	-0.6966510723175027	-0.1859227123208177	-2.182856358731516e-08	1.277523704169532e-07	2.234501949474446e-06	1.064858363343627e-06	-3.272757722512775e-07	-4.950380626169671e-08	1.573383432403686e-06
0.54	-0.196577280764782	0.02183771086299005	0.781432914234478	1.009974577356979	-0.2410503440995517	-0.06559682221751417	-0.6745933297715728	1.04174579840673	1.041745798406736	0.00494527102775797	0.1744958204449829	0.3140562117175323	0.1168274794704316	-0.4266897122073485	-0.1822486533752217	-0.5247877673122053	1.90699405074524	-0.01584365643427755	0.3344672739332541	-0.6606108333396342	1.890880333034014	1.890880333034008	-0.2666628684653769	-0.0003810206702619101	0.5015786577893464	0.1585452165751385	-0.2458413768784099	0.02515384928949358	0.02718584671717738	-0.2864707680396429	-0.02494808995709771	-0.01061411020713088	0.2759899643750515	-4.284452377810982	-52.23455738897381	-13.29028373369564	2.009264437958661	-2.610516231325686	-660.3997072683111	50.36001205626117	0.5694680089956065	0.6290659760514274	-0.1498025511046959	-1.968247284992254	-0.03014157989402814	-0.3218616181129927	1.970386416634456	-1.992754071252475	-1.992754071252473	0.6359966198200181	-0.04763835959598246	-0.7340183398089442	-0.1747751066296099	-2.023171778802784e-08	1.219587876359472e-07	2.125822682956954e-06	9.917688838681362e-07	-3.142185171782293e-07	-4.768609356889453e-08	1.536913407925358e-06
0.55	-0.2008149295192955	0.02004673471891454	0.7761787817407301	1.028943386933371	-0.2412104445051982	-0.06227175739130746	-0.6811005448551835	1.060552147063552	1.060552147063559	0.002308335652213082	0.1744920847098586	0.3190344662332794	0.118403623500776	-0.4207769965171173	-0.1759410686233134	-0.5259172519958715	1.886519754188525	-0.01615835751471391	0.3304763148540436	-0.6407738355481518	1.870139090292672	1.870139090292663	-0.2607793245790042	-0.000356683504704775	0.4940093575319288	0.1566809701365819	-0.2526166226816556	0.02631732289401671	0.02706323826749531	-0.2911630224968155	-0.02641708198953642	-0.01024817868734113	0.2820385070788027	-3.610921939962177	-53.03705872659374	-13.40373130188428	2.177965804892503	-2.46083527711536	-665.6483007725775	50.47227875718241	0.611642701007742	0.6323693281537046	-0.07630884967414762	-2.124221282959544	-0.0291831331415197	-0.448177312108145	1.999108635482982	-2.152351709140618	-2.15235170914099	0.5565291244966482	0.02914420854939493	-0.7778835433474515	-0.1922047094703044	-3.24300333437831e-08	9.551345935584701e-08	1.913950650634019e-06	7.402290580575799e-07	-2.772612796362167e-07	-5.695956732504086e-08	1.397205447731853e-06
0.5600000000000001	-0.2049915572465104	0.01831898734303647	0.7709169969156099	1.047700013455803	-0.2413731016738509	-0.05898869500774891	-0.6874076395258641	1.079143574826251	1.079143574826255	-0.0002713651141486527	0.1744889272371646	0.3239351282115236	0.1199611340073351	-0.4144855067480557	-0.1696028997357326	-0.5263182335865864	1.864557439953863	-0.01635500903608031	0.3260667854035156	-0.6205867507535517	1.84789615420871	1.847896154208699	-0.2552159466346057	-0.0002653681824341019	0.4860601502889409	0.1548185118179618	-0.2593918684849337	0.02748079649855193	0.02694062981771452	-0.2958552769539954	-0.02788607402196595	-0.009882247167526219	0.2880870497825231	-2.999566492273399	-53.83868412034006	-13.51189184416698	2.339961393847301	-2.335738347855949	-670.8956095322259	50.59797384052584	0.6452228247615687	0.6351828031860182	-0.004101932514474667	-2.265850820581709	-0.006531668080068514	-0.4055756923764876	2.040403817257963	-2.293092739776413	-2.293092739776411	0.5719634314251989	-0.03424272825325534	-0.8099997369229105	-0.174417482642329	-6.11825425255889e-08	4.42860364768345e-08	1.578247299344557e-06	2.745488166449517e-07	-2.116240631314478e-07	-7.954246481992496e-08	1.133611964680138e-06
0.5700000000000001	-0.2091034598292093	0.01665470467775223	0.7656548446403115	1.066229741531826	-0.2415373878075903	-0.05575006656373906	-0.6935112469315482	1.097505314962622	1.097505314962622	-0.002795220791947586	0.1744863825845354	0.3287543712670583	0.1214995653997744	-0.4078361843535451	-0.1632550261497068	-0.5259894329097329	1.841149481892861	-0.0164893486181412	0.3216083947298676	-0.6000944234700394	1.82421225419742	1.824212254197435	-0.2495846808752114	-0.000236309509053332	0.47772742978107	0.1528560936762977	-0.2659493146678585	0.02861892863470536	0.02674296617731586	-0.300594462385803	-0.02939914994948173	-0.009589940523184026	0.2938916111052728	-2.449021810564814	-54.659866550265	-13.6593087706813	2.512620213385582	-2.111239317216834	-676.0802007645443	50.64178038061583	0.6836115768144159	0.6343458129971532	0.06977088897898868	-2.414070992689414	-0.01488669567978203	-0.4736696466173321	2.059693220814935	-2.441965972723655	-2.4419659727197	0.5544669151083782	0.02261941133719268	-0.8541077329617226	-0.2086853757016224	-8.474637609160377e-08	1.937478541253515e-09	1.28089887448173e-06	-1.115225938475994e-07	-1.555115644720712e-07	-9.479736798526166e-08	8.892980561358552e-07
0.58	-0.2131471042619563	0.01505385198366521	0.7603996603360204	1.084518229488471	-0.2417026176556278	-0.05255756180481939	-0.6994087218570143	1.115623030630698	1.115623030630695	-0.00526361205874775	0.1744843563678746	0.333488447212465	0.1230180663316432	-0.4008338767582944	-0.1569169054962878	-0.524924639385116	1.816309416078657	-0.01654375189663724	0.31684204838589	-0.5793602547098412	1.799091260549397	1.79909126054944	-0.2441230644393484	-0.0001616809875348458	0.4690267282634987	0.1508324197037084	-0.2725067608508157	0.02975706077087037	0.02654530253684574	-0.3053336478176166	-0.03091222587698918	-0.009297633878821231	0.299696172427992	-1.958063414141598	-55.48099323426364	-13.80089843601336	2.677705457290496	-1.915118334862526	-681.2772392936491	50.71940937199815	0.7158198649094886	0.6332322166647174	0.1430966370381757	-2.552272371221984	0.009455592632868033	-0.4671668264424122	2.088772112595081	-2.580511467122729	-2.580511467122731	0.5380335667190136	-0.02512875862569795	-0.8835959388629038	-0.1866686488273681	-1.015528646696118e-07	-2.88479064447423e-08	1.033501051476847e-06	-3.93917387327957e-07	-1.118033495183218e-07	-1.00508836674909e-07	6.700924306710197e-07
0.59	-0.2171190616656898	0.01351629453784484	0.7551587773935272	1.102551355267667	-0.2418681626825272	-0.04941279847875785	-0.705097687279539	1.133482671795946	1.13348267179594	-0.00767677259598838	0.1744828080251331	0.3381337544819714	0.1245157261556755	-0.3935027517431791	-0.1505993707022198	-0.5231304187003754	1.790086776593674	-0.01656043811204602	0.312101131277498	-0.5584034608007109	1.772618138311489	1.772618138311514	-0.2384902622433081	-0.0001462568070934119	0.4599833565274947	0.1486764803591392	-0.2787995801829106	0.03068699826942661	0.0263406940498948	-0.3101477325771727	-0.0323259610158141	-0.00903728821524246	0.3052341895658097	-1.525609142183357	-56.26513984830925	-13.94827910544138	2.841869196786013	-1.694932255838286	-686.3270209048694	50.80217764061263	0.749979534787648	0.6302788164460791	0.2157935751868954	-2.691612199450299	-0.00654761665176389	-0.4791302302955993	2.103538379164626	-2.71351545066045	-2.713515450663191	0.5788493758175667	0.01505818195025691	-0.9224435880750982	-0.2334429176128623	-1.111144588809379e-07	-4.85995207292483e-08	8.40490580405207e-07	-5.773292308799111e-07	-8.056104006142486e-08	-9.986967349474987e-08	4.988883459528074e-07
